<svg width="28" height="22" viewBox="0 0 28 22" fill="none" xmlns="http://www.w3.org/2000/svg">
<path d="M16 0C9.37333 0 4 4.92556 4 11H0L5.18666 15.7544L5.28 15.9256L10.6666 11H6.66666C6.66666 6.27 10.84 2.44444 16 2.44444C21.16 2.44444 25.3333 6.27 25.3333 11C25.3333 15.73 21.16 19.5556 16 19.5556C13.4266 19.5556 11.0933 18.59 9.41333 17.0378L7.52 18.7733C9.69332 20.7656 12.68 22 16 22C22.6266 22 28 17.0744 28 11C28 4.92556 22.6266 0 16 0ZM14.6666 6.11111V12.2222L20.3733 15.3267L21.3333 13.8478L16.6666 11.3056V6.11111H14.6666Z" fill="#FBDABB"/>
</svg>
