<svg width="17" height="18" viewBox="0 0 17 18" fill="none" xmlns="http://www.w3.org/2000/svg">
<path d="M16.125 14.875C16.5938 15.375 16.5938 16.1562 16.125 16.6562C15.625 17.125 14.8438 17.125 14.3438 16.6562L10.625 12.9062C9.34375 13.75 7.78125 14.1875 6.09375 13.9688C3.21875 13.5625 0.90625 11.2188 0.53125 8.375C0 4.125 3.59375 0.53125 7.84375 1.0625C10.6875 1.4375 13.0312 3.75 13.4375 6.625C13.6562 8.3125 13.2188 9.875 12.375 11.125L16.125 14.875ZM2.96875 7.5C2.96875 9.71875 4.75 11.5 6.96875 11.5C9.15625 11.5 10.9688 9.71875 10.9688 7.5C10.9688 5.3125 9.15625 3.5 6.96875 3.5C4.75 3.5 2.96875 5.3125 2.96875 7.5Z" fill="#495E57"/>
</svg>
