<svg width="25" height="25" viewBox="0 0 25 25" fill="none" xmlns="http://www.w3.org/2000/svg">
<path d="M22.2739 0.725708C22.8596 0.140221 23.8093 0.140358 24.395 0.725708C24.9808 1.31149 24.9808 2.26199 24.395 2.84778L14.6216 12.6212L23.9399 21.9396C24.5253 22.5253 24.5254 23.475 23.9399 24.0607C23.3542 24.6465 22.4037 24.6465 21.8179 24.0607L12.4995 14.7423L3.18213 24.0607C2.59638 24.6464 1.64683 24.6463 1.06104 24.0607C0.47525 23.4749 0.475252 22.5254 1.06104 21.9396L10.3784 12.6212L0.60498 2.84778C0.0191941 2.26199 0.0191941 1.31149 0.60498 0.725708C1.19068 0.140254 2.14034 0.140325 2.72607 0.725708L12.4995 10.4991L22.2739 0.725708Z" fill="#333333"/>
</svg>
